<?xml version="1.0" standalone="no"?>
<!DOCTYPE svg PUBLIC "-//W3C//DTD SVG 20010904//EN"
 "http://www.w3.org/TR/2001/REC-SVG-20010904/DTD/svg10.dtd">
<svg version="1.0" xmlns="http://www.w3.org/2000/svg"
 width="592.000000pt" height="592.000000pt" viewBox="0 0 592.000000 592.000000"
 preserveAspectRatio="xMidYMid meet">
<metadata>
Created by potrace 1.14, written by Peter Selinger 2001-2017
</metadata>
<g transform="translate(0.000000,592.000000) scale(0.100000,-0.100000)"
fill="#000000" stroke="none">
<path d="M1448 5486 c-31 -19 -76 -46 -100 -59 -157 -89 -196 -112 -220 -129
-16 -11 -28 -16 -28 -12 0 4 -8 0 -17 -8 -10 -8 -121 -74 -248 -147 -126 -72
-237 -136 -245 -141 -8 -5 -91 -53 -185 -106 -93 -54 -177 -103 -185 -110 -8
-7 -51 -31 -95 -54 -54 -28 -85 -51 -95 -71 -13 -25 -15 -230 -15 -1691 1
-915 4 -1673 9 -1685 4 -13 28 -35 54 -50 26 -16 60 -36 77 -46 16 -10 38 -20
47 -23 10 -4 18 -10 18 -15 0 -5 4 -9 10 -9 5 0 55 -27 111 -60 55 -33 103
-60 105 -60 3 0 21 -11 42 -24 20 -13 118 -70 217 -127 99 -56 181 -107 183
-111 2 -4 10 -8 18 -8 8 0 27 -9 42 -19 24 -17 296 -175 412 -239 25 -14 57
-33 72 -43 14 -11 31 -19 37 -19 6 0 11 -4 11 -9 0 -10 93 -11 100 -1 4 6 209
127 352 208 18 11 132 77 253 147 121 71 245 143 275 160 30 18 153 89 273
159 l218 126 42 -23 c23 -13 125 -72 227 -132 102 -59 201 -117 220 -127 19
-11 103 -60 186 -108 83 -49 166 -97 185 -108 19 -10 81 -47 137 -81 57 -33
105 -61 107 -61 2 0 66 -37 142 -82 153 -92 205 -106 246 -67 11 10 27 19 34
19 7 0 13 5 13 10 0 6 4 10 10 10 5 0 65 32 132 71 68 39 143 83 168 97 25 14
236 135 470 270 234 134 465 267 513 295 48 27 93 59 100 71 9 16 12 426 12
1671 0 908 4 1656 8 1662 10 15 -21 83 -37 83 -6 0 -44 20 -84 45 -40 25 -74
45 -76 45 -4 0 -192 109 -226 130 -8 5 -31 18 -50 29 -91 50 -486 281 -497
291 -7 5 -14 10 -17 10 -4 0 -158 89 -437 251 -36 22 -77 39 -91 39 -13 0 -66
-25 -117 -55 -51 -30 -95 -55 -96 -55 -2 0 -38 -20 -79 -45 -42 -25 -81 -45
-86 -45 -6 0 -10 -4 -10 -10 0 -5 -4 -10 -9 -10 -5 0 -98 -52 -206 -115 -109
-63 -199 -115 -201 -115 -2 0 -32 -17 -66 -38 -35 -21 -70 -42 -78 -46 -8 -4
-24 -12 -35 -19 -11 -7 -36 -21 -55 -33 -19 -12 -115 -67 -212 -123 l-178
-103 -202 117 c-112 65 -214 125 -228 133 -14 9 -27 17 -30 17 -5 0 -48 26
-228 132 -41 24 -76 43 -78 43 -3 0 -33 17 -67 39 -34 21 -96 58 -137 81 -90
51 -97 55 -277 159 -77 45 -156 84 -175 87 -26 4 -45 -3 -90 -30z m283 -272
c101 -59 202 -117 224 -129 22 -13 81 -47 130 -76 50 -29 104 -60 120 -69 17
-8 41 -23 55 -31 14 -9 102 -60 195 -114 94 -53 180 -104 192 -111 13 -8 26
-14 29 -13 4 0 10 -3 13 -8 3 -4 22 -17 43 -28 20 -11 38 -24 40 -28 1 -5 -20
-21 -48 -36 -27 -16 -69 -40 -92 -55 -23 -14 -43 -26 -45 -26 -2 0 -77 -43
-166 -95 -90 -52 -165 -95 -168 -95 -3 0 -25 -13 -50 -30 -24 -16 -46 -30 -47
-30 -2 0 -64 -36 -139 -79 -74 -43 -154 -90 -178 -104 -24 -13 -104 -59 -176
-101 l-133 -77 -31 17 c-18 9 -108 61 -201 115 -93 54 -171 99 -173 99 -2 0
-24 14 -48 30 -25 17 -47 30 -50 30 -3 0 -41 21 -84 46 -43 26 -98 58 -123 72
-25 14 -124 71 -221 128 -97 56 -191 111 -210 121 -80 45 -110 66 -102 74 7 7
119 72 406 238 54 31 105 61 115 66 54 31 253 146 282 163 19 10 97 56 174
101 76 44 142 81 146 81 5 0 10 3 12 8 5 13 102 62 114 58 6 -3 94 -53 195
-112z m2706 88 c27 -16 95 -56 153 -89 58 -34 170 -99 250 -145 80 -47 165
-96 190 -110 74 -41 173 -99 200 -116 14 -9 27 -17 30 -17 3 0 16 -8 30 -17
53 -35 324 -188 332 -188 17 0 2 -25 -20 -35 -12 -5 -22 -13 -22 -17 0 -5 -4
-8 -9 -8 -5 0 -93 -49 -196 -110 -103 -61 -189 -110 -190 -110 -1 0 -43 -24
-92 -54 -49 -29 -109 -64 -133 -78 -25 -14 -128 -74 -230 -133 -199 -115 -279
-161 -322 -182 -26 -13 -35 -9 -215 95 -103 61 -206 119 -227 131 -21 12 -107
62 -190 111 -213 124 -203 118 -328 190 -62 35 -125 71 -139 80 -14 8 -61 35
-104 59 l-77 44 83 48 c46 27 93 55 104 64 10 8 22 15 27 15 4 0 47 24 95 53
48 29 95 56 103 60 8 4 30 16 49 28 39 23 307 178 526 304 22 13 90 53 150 88
61 36 113 66 117 66 4 1 29 -12 55 -27z m-1275 -916 c81 -47 152 -86 157 -86
6 0 11 -4 11 -10 0 -5 6 -10 14 -10 8 0 21 -6 28 -12 13 -13 81 -52 125 -73
13 -5 23 -13 23 -17 0 -5 4 -8 9 -8 6 0 88 -46 183 -102 95 -55 194 -113 219
-127 127 -71 269 -156 269 -161 0 -3 -10 -10 -23 -16 -12 -6 -142 -81 -289
-167 -148 -87 -270 -157 -272 -157 -2 0 -44 -24 -92 -53 -49 -30 -132 -78
-184 -109 -52 -30 -158 -91 -236 -136 -77 -45 -146 -82 -153 -82 -6 0 -29 11
-51 25 -22 14 -42 25 -45 25 -3 0 -22 11 -43 23 -20 13 -224 132 -453 265
-228 132 -431 250 -450 261 -19 11 -41 24 -49 28 -8 4 -48 27 -88 51 l-73 44
78 47 c43 25 89 52 103 58 14 7 43 24 65 38 22 14 47 28 55 32 8 4 87 49 175
101 88 52 178 104 200 116 113 64 455 262 485 281 80 52 92 55 125 36 17 -10
96 -57 177 -105z m2566 -601 c0 -371 -3 -675 -5 -675 -10 0 -108 55 -111 63
-2 4 -8 7 -13 7 -5 0 -42 20 -82 44 -39 24 -92 54 -117 68 -25 14 -144 83
-265 153 -121 70 -238 138 -260 150 -221 126 -311 182 -307 193 2 6 8 12 13
12 5 0 33 16 63 35 30 19 57 35 60 35 2 0 54 29 115 65 60 36 112 65 116 65 3
0 11 5 18 10 10 10 493 289 587 341 19 11 42 24 50 29 17 11 134 80 136 80 1
0 2 -304 2 -675z m-5389 586 c75 -43 152 -88 171 -100 19 -11 42 -24 50 -28 8
-3 39 -21 68 -40 29 -18 55 -33 57 -33 3 0 35 -18 71 -40 36 -22 67 -40 69
-40 1 0 80 -46 176 -101 96 -56 190 -111 209 -121 114 -64 140 -80 140 -87 0
-4 -12 -14 -27 -21 -16 -8 -39 -22 -53 -31 -14 -9 -47 -29 -75 -43 -27 -15
-57 -31 -65 -36 -61 -38 -151 -90 -154 -90 -2 0 -33 -17 -67 -38 -35 -22 -84
-50 -109 -64 -25 -14 -112 -64 -193 -112 -82 -47 -152 -86 -158 -86 -5 0 -9
-4 -9 -10 0 -5 -4 -10 -9 -10 -6 0 -60 -29 -121 -65 -61 -36 -114 -65 -118
-65 -4 0 -7 302 -7 670 0 383 4 670 9 670 5 0 70 -35 145 -79z m1243 -721 c26
-16 53 -30 58 -30 6 0 10 -4 10 -10 0 -5 5 -10 11 -10 6 0 44 -20 85 -45 40
-25 78 -45 84 -45 5 0 10 -4 10 -10 0 -5 5 -10 11 -10 12 0 145 -76 172 -98 9
-8 17 -11 17 -6 0 5 4 5 8 -1 4 -5 16 -15 27 -21 64 -35 691 -398 698 -404 7
-6 -254 -163 -453 -273 -30 -17 -84 -48 -119 -69 -34 -21 -64 -38 -66 -38 -2
0 -64 -36 -139 -80 -76 -44 -141 -80 -146 -80 -6 0 -10 -4 -10 -8 0 -4 -12
-13 -27 -19 -16 -7 -46 -23 -68 -37 -22 -14 -51 -31 -65 -39 -14 -8 -54 -30
-90 -50 l-65 -36 -85 51 c-47 27 -128 75 -180 105 -52 30 -102 58 -110 63 -87
53 -151 90 -154 90 -3 0 -40 21 -83 46 -43 26 -91 55 -108 64 -16 9 -118 68
-225 130 -107 62 -217 126 -245 141 -27 15 -51 31 -52 36 -2 4 32 27 75 51 42
23 109 61 147 83 39 23 84 49 100 58 17 9 68 39 115 66 47 28 97 57 112 65 16
8 68 39 118 68 49 28 94 52 99 52 5 0 11 4 13 8 2 5 28 22 58 39 30 16 116 65
190 108 205 119 215 125 219 125 2 0 26 -13 53 -30z m3010 -94 c108 -63 242
-140 298 -172 56 -33 118 -69 138 -81 39 -22 62 -35 127 -72 70 -40 347 -201
418 -243 l68 -41 -43 -21 c-24 -11 -45 -23 -48 -26 -4 -5 -252 -147 -362 -208
-20 -12 -55 -32 -77 -46 -22 -15 -43 -26 -45 -26 -3 0 -27 -13 -54 -29 -26
-15 -68 -39 -93 -53 -24 -14 -104 -60 -177 -102 -73 -42 -136 -76 -141 -76 -5
0 -11 -4 -13 -8 -5 -12 -200 -118 -211 -114 -5 1 -113 63 -241 136 -127 74
-247 143 -266 153 -19 11 -143 82 -275 158 -132 75 -265 151 -295 168 -30 16
-72 41 -92 54 -21 12 -41 23 -46 23 -4 0 -13 5 -20 12 -8 8 -6 14 11 23 12 6
193 111 403 232 572 332 625 363 635 363 5 0 9 5 9 10 0 6 4 10 10 10 5 0 42
20 82 45 40 24 80 45 88 45 9 0 104 -51 212 -114z m-1721 -1472 c0 -580 -2
-719 -13 -729 -7 -7 -33 -24 -58 -37 -25 -14 -79 -45 -120 -70 -41 -24 -82
-47 -90 -51 -8 -4 -31 -17 -51 -30 -20 -12 -118 -69 -218 -127 -100 -58 -190
-109 -199 -115 -43 -25 -181 -105 -212 -123 -19 -11 -91 -52 -159 -91 -68 -39
-126 -69 -129 -66 -3 3 -6 326 -7 718 0 701 0 712 20 728 17 13 65 41 215 126
61 35 264 153 280 163 8 5 47 27 85 49 87 50 137 79 295 171 69 40 143 83 165
95 22 13 74 43 115 68 41 24 76 43 78 42 2 -2 3 -326 3 -721z m2857 7 c0 -395
-3 -723 -7 -729 -3 -5 -148 -92 -321 -192 -173 -101 -450 -261 -614 -357 -164
-95 -302 -173 -307 -173 -4 0 -7 325 -6 722 l2 721 229 134 c126 73 230 133
231 133 1 0 55 32 119 70 65 39 121 70 125 70 5 0 14 7 21 15 6 8 15 14 18 13
4 -1 27 10 52 25 82 50 164 98 215 126 28 16 93 53 145 84 52 31 96 56 96 57
1 0 2 -323 2 -719z m-5237 539 c5 0 9 -4 9 -10 0 -5 4 -10 10 -10 5 0 73 -38
152 -84 79 -45 163 -94 188 -108 25 -14 106 -60 180 -103 74 -43 146 -85 160
-92 14 -8 39 -22 55 -32 17 -10 48 -28 70 -41 22 -12 58 -33 81 -46 l41 -24 2
-67 c1 -38 2 -74 2 -80 -1 -7 -1 -19 -2 -25 0 -16 0 -131 1 -218 1 -36 1 -71
1 -77 -1 -7 -1 -19 -2 -25 0 -16 0 -131 1 -218 1 -36 1 -71 1 -77 -1 -7 -1
-19 -2 -25 0 -16 0 -131 1 -218 1 -36 1 -71 1 -77 -1 -7 -1 -19 -2 -25 0 -7 0
-44 0 -83 1 -176 0 -225 -6 -225 -6 0 -40 19 -288 164 -66 38 -203 117 -305
176 -443 255 -645 374 -650 381 -4 6 -5 1430 -1 1436 0 0 67 -37 147 -83 80
-46 150 -84 155 -84z m2699 90 c43 -27 548 -319 600 -347 14 -8 39 -23 55 -33
17 -11 44 -26 60 -35 17 -8 46 -24 65 -36 126 -76 220 -129 229 -129 6 0 11
-4 11 -8 0 -4 20 -18 45 -30 25 -12 45 -27 46 -34 5 -57 3 -1412 -2 -1420 -4
-6 -70 27 -154 76 -81 47 -151 86 -156 86 -5 0 -9 5 -9 10 0 6 -4 10 -9 10 -9
0 -106 53 -161 88 -14 9 -27 17 -30 17 -3 0 -23 12 -45 26 -22 14 -67 41 -100
59 -33 18 -71 41 -85 50 -14 9 -30 19 -36 21 -6 2 -114 64 -240 137 l-229 133
2 692 c1 381 2 704 2 719 l1 28 48 -26 c26 -15 67 -39 92 -54z"/>
</g>
</svg>
