<?xml version="1.0" standalone="no"?>
<!DOCTYPE svg PUBLIC "-//W3C//DTD SVG 20010904//EN"
 "http://www.w3.org/TR/2001/REC-SVG-20010904/DTD/svg10.dtd">
<svg version="1.0" xmlns="http://www.w3.org/2000/svg"
 width="1080.000000pt" height="1080.000000pt" viewBox="0 0 1080.000000 1080.000000"
 preserveAspectRatio="xMidYMid meet">
<metadata>
Created by potrace 1.14, written by Peter Selinger 2001-2017
</metadata>
<g transform="translate(0.000000,1080.000000) scale(0.100000,-0.100000)"
fill="#000000" stroke="none">
<path d="M5119 10796 c-2 -2 -55 -7 -117 -11 -62 -3 -123 -8 -135 -10 -12 -2
-53 -7 -92 -11 -38 -4 -72 -8 -75 -9 -3 0 -32 -4 -65 -9 -52 -6 -137 -20 -250
-41 -300 -55 -635 -150 -940 -268 -215 -83 -567 -250 -710 -337 -33 -20 -67
-40 -75 -44 -16 -7 -40 -21 -80 -47 -14 -9 -70 -45 -125 -80 -55 -35 -102 -66
-105 -69 -3 -3 -27 -20 -55 -39 -307 -212 -658 -523 -919 -816 -123 -138 -136
-154 -176 -205 -19 -25 -37 -47 -40 -50 -3 -3 -19 -23 -35 -45 -17 -22 -32
-42 -35 -45 -14 -13 -143 -197 -211 -300 -171 -259 -337 -570 -451 -840 -21
-52 -44 -104 -49 -115 -28 -61 -145 -403 -174 -510 -27 -98 -57 -209 -60 -225
-12 -52 -64 -311 -69 -340 -3 -19 -8 -44 -10 -55 -6 -29 -25 -162 -31 -215
-12 -103 -14 -128 -22 -215 -16 -181 -7 -982 12 -1015 1 -3 5 -37 9 -75 4 -39
8 -81 10 -95 3 -14 10 -59 16 -100 58 -383 216 -942 344 -1225 8 -16 29 -65
46 -109 46 -111 204 -419 285 -556 197 -332 432 -650 675 -913 180 -195 400
-404 580 -547 24 -19 48 -40 54 -45 34 -33 341 -253 418 -300 412 -253 676
-386 1033 -520 121 -46 366 -127 422 -140 10 -2 70 -18 133 -35 113 -29 366
-83 445 -95 23 -3 52 -8 65 -10 14 -3 43 -7 65 -10 22 -3 56 -7 75 -10 216
-30 386 -39 690 -40 346 0 511 12 845 60 34 5 161 28 270 50 17 3 41 8 55 11
14 2 36 7 50 11 41 10 43 11 110 28 36 9 76 18 89 21 14 3 28 7 33 10 4 3 16
7 25 9 45 9 199 58 303 95 63 23 133 47 155 55 36 12 118 46 260 108 71 31
410 201 475 239 1082 620 1922 1592 2367 2736 107 277 217 647 257 865 14 76
27 145 31 167 8 41 24 141 30 195 3 28 8 61 10 75 3 14 8 57 11 95 4 39 8 84
10 100 21 200 21 789 0 925 -2 14 -7 59 -10 100 -4 41 -8 86 -11 100 -2 14 -6
47 -9 74 -12 101 -70 414 -98 521 -5 22 -12 48 -13 58 -10 51 -73 262 -121
404 -187 560 -448 1054 -817 1547 -217 290 -538 627 -820 862 -50 42 -103 85
-116 96 -298 251 -804 554 -1226 736 -397 172 -880 314 -1250 369 -16 2 -55 8
-85 13 -30 5 -82 12 -115 16 -33 3 -62 8 -65 9 -3 2 -48 6 -100 10 -52 4 -108
9 -125 12 -34 5 -671 14 -676 9z"/>
</g>
</svg>
