<?xml version="1.0" standalone="no"?>
<!DOCTYPE svg PUBLIC "-//W3C//DTD SVG 20010904//EN"
 "http://www.w3.org/TR/2001/REC-SVG-20010904/DTD/svg10.dtd">
<svg version="1.0" xmlns="http://www.w3.org/2000/svg"
 width="230.000000pt" height="230.000000pt" viewBox="0 0 230.000000 230.000000"
 preserveAspectRatio="xMidYMid meet">
<metadata>
Created by potrace 1.14, written by Peter Selinger 2001-2017
</metadata>
<g transform="translate(0.000000,230.000000) scale(0.100000,-0.100000)"
fill="#000000" stroke="none">
<path d="M479 1558 c-188 -321 -374 -636 -412 -700 l-69 -117 176 -292 175
-292 816 0 c448 0 817 2 819 4 3 2 75 134 161 292 l157 288 -290 502 c-159
276 -341 591 -403 699 l-114 198 -337 0 -336 0 -343 -582z m691 317 c44 -212
99 -413 153 -555 63 -168 130 -274 272 -430 81 -90 242 -245 307 -297 65 -53
65 -63 -1 -31 -51 24 -262 101 -269 98 -1 -1 -35 5 -75 14 -153 33 -220 40
-392 39 -123 -1 -189 -7 -325 -29 -79 -12 -272 -65 -380 -103 -89 -31 -108
-35 -85 -19 79 56 381 406 511 593 86 124 173 332 208 501 23 107 26 125 32
174 3 25 7 54 9 65 2 11 4 38 5 60 2 51 5 43 30 -80z"/>
</g>
</svg>
